<svg id="Capa_1" enable-background="new 0 0 512 512" height="512" viewBox="0 0 512 512" width="512" xmlns="http://www.w3.org/2000/svg" xmlns:xlink="http://www.w3.org/1999/xlink"><linearGradient id="SVGID_1_" gradientUnits="userSpaceOnUse" x1="12.034" x2="499.966" y1="256" y2="256"><stop offset=".0485" stop-color="#ffdbed"/><stop offset=".9993" stop-color="#d2deff"/></linearGradient><linearGradient id="SVGID_2_" gradientUnits="userSpaceOnUse" x1="256" x2="256" y1="199.515" y2="294.485"><stop offset=".0028" stop-color="#ff7eb8" stop-opacity="0"/><stop offset="1" stop-color="#ff7eb8" stop-opacity=".6"/></linearGradient><g><g><g><path d="m286.593 4.867c-94.351 27.746-75.427 93.585-85.98 166.539-13.171 91.052-70.095 44.365-135.496 93.538-113.054 85.001-30.931 272.636 109.468 244.14 74.552-15.131 89.786-70.095 120.193-128.824 39.333-75.973 104.558-55.26 163.066-104.857 118.655-100.582-37.403-309.897-171.251-270.536z" fill="url(#SVGID_1_)"/></g><g><g><circle cx="256" cy="247" fill="#02ffb3" r="47.485"/><path d="m271.67 240.871h-12.168v-23.854c0-1.112-1.494-1.475-2.004-.487l-18.111 35.05c-.365.706.148 1.549.943 1.549h12.167v23.854c0 1.112 1.494 1.475 2.004.487l18.111-35.05c.366-.707-.147-1.549-.942-1.549z" fill="#fff"/></g><circle cx="309.383" cy="69.344" fill="#9fb0fe" r="22.353"/><circle cx="79.63" cy="285.581" fill="#ff7eb8" r="22.353"/><g><circle cx="256" cy="350.444" fill="#fff" r="22.353"/><g><path d="m411.304 247c5.338-5.928 10.291-11.885 14.807-17.844 28.307-37.349 36.545-70.648 23.199-93.764s-46.3-32.63-92.802-26.791c-7.415.931-15.048 2.242-22.848 3.9-2.413-7.419-5.04-14.526-7.873-21.285 6.642-4.995 10.947-12.94 10.947-21.872 0-15.082-12.271-27.353-27.353-27.353-4.251 0-8.279.975-11.872 2.713-12.898-13.87-26.855-20.92-41.511-20.92-26.692 0-51.411 23.785-69.602 66.973-2.902 6.89-5.585 14.159-8.05 21.746-7.803-1.659-15.438-2.97-22.857-3.902-46.505-5.839-79.456 3.675-92.802 26.791s-5.107 56.415 23.199 93.764c4.517 5.96 9.472 11.92 14.812 17.85-3.926 4.357-7.639 8.729-11.123 13.103-3.086-1.209-6.439-1.881-9.949-1.881-15.082 0-27.353 12.27-27.353 27.353 0 8.37 3.783 15.87 9.724 20.891-7.531 20.278-7.319 38.268.688 52.136 10.513 18.208 33.174 28.045 65.535 28.448.697.008 1.395.013 2.1.013 14.669 0 30.827-1.895 48.026-5.565 2.464 7.585 5.146 14.851 8.047 21.739 18.191 43.188 42.91 66.973 69.602 66.973s51.411-23.785 69.602-66.973c2.901-6.888 5.583-14.154 8.047-21.739 17.198 3.67 33.357 5.565 48.026 5.564.702 0 1.404-.004 2.1-.013 32.361-.403 55.022-10.24 65.535-28.448 13.346-23.116 5.108-56.415-23.199-93.764-4.511-5.958-9.464-11.915-14.802-17.843zm-53.549-128.477c41.636-5.23 71.852 2.742 82.896 21.869 11.043 19.127 2.839 49.279-22.509 82.724-4.183 5.519-8.75 11.04-13.67 16.539-15.524-16.182-33.889-32.043-54.377-46.969-2.678-25.231-7.224-49.065-13.48-70.597 7.215-1.51 14.274-2.704 21.14-3.566zm-128.571 237.314c-15.193 5.767-29.945 10.403-44.019 13.851-5.442-18.605-9.578-39.025-12.29-60.617 11.053 7.598 22.639 14.917 34.667 21.861 7.284 4.206 14.718 8.251 22.142 12.075-.67 2.367-1.036 4.859-1.036 7.437-.001 1.846.186 3.648.536 5.393zm26.816-22.746c9.568 0 17.352 7.784 17.352 17.353 0 9.568-7.784 17.353-17.352 17.353s-17.352-7.785-17.352-17.353c-.001-9.569 7.784-17.353 17.352-17.353zm26.317 9.917c7.409-3.817 14.846-7.865 22.141-12.077 12.028-6.944 23.614-14.263 34.667-21.861-2.712 21.59-6.847 42.008-12.288 60.612-14.075-3.446-28.827-8.079-44.021-13.846.35-1.744.536-3.547.536-5.393 0-2.577-.366-5.069-1.035-7.435zm17.141-20.737c-7.111 4.106-14.359 8.052-21.58 11.775-4.995-6.647-12.942-10.955-21.878-10.955-8.935 0-16.883 4.308-21.877 10.954-7.234-3.73-14.479-7.674-21.581-11.774-14.424-8.328-28.195-17.192-41.135-26.432-1.532-15.826-2.323-32.184-2.323-48.84 0-16.65.791-33.003 2.322-48.824 12.957-9.257 26.731-18.131 41.136-26.447 14.424-8.328 28.986-15.821 43.458-22.408 14.472 6.587 29.034 14.08 43.458 22.408 14.43 8.331 28.204 17.199 41.148 26.442 1.525 15.806 2.31 32.158 2.31 48.83 0 16.656-.792 33.013-2.323 48.84-12.94 9.239-26.711 18.104-41.135 26.431zm-138.775-34.318c-17.34-13.143-32.954-26.931-46.344-40.945 13.395-14.01 29.018-27.805 46.343-40.943-1.053 13.366-1.598 27.052-1.598 40.934 0 13.89.545 27.582 1.599 40.954zm12.191-103.016c2.712-21.596 6.848-42.019 12.291-60.626 18.834 4.589 38.586 11.218 58.643 19.666-12.107 5.773-24.238 12.147-36.266 19.092-12.014 6.935-23.603 14.257-34.668 21.868zm95.317-40.96c20.06-8.45 39.817-15.079 58.655-19.669 5.447 18.602 9.579 39.019 12.288 60.628-11.056-7.601-22.645-14.922-34.676-21.868-12.028-6.944-24.159-13.318-36.267-19.091zm83.133 62.075c17.341 13.144 32.955 26.933 46.345 40.948-13.392 14.016-29.008 27.808-46.352 40.953 1.054-13.372 1.599-27.064 1.599-40.953 0-13.901-.543-27.589-1.592-40.948zm-24.589-136.708c0 9.568-7.784 17.353-17.353 17.353-9.568 0-17.353-7.784-17.353-17.353 0-9.568 7.785-17.353 17.353-17.353 9.569 0 17.353 7.785 17.353 17.353zm-131.122 25.295c16.29-38.674 38.301-60.855 60.387-60.855 11.486 0 22.716 5.684 33.416 16.892-4.577 4.892-7.387 11.456-7.387 18.668 0 15.082 12.27 27.353 27.353 27.353 2.575 0 5.065-.366 7.43-1.034 2.529 6.076 4.882 12.451 7.063 19.084-21.779 5.354-44.702 13.33-67.876 23.612-23.173-10.283-46.096-18.258-67.874-23.612 2.302-7.01 4.8-13.726 7.488-20.108zm-101.755 128.477c-25.348-33.444-33.552-63.596-22.509-82.724s41.254-27.096 82.896-21.869c6.871.863 13.936 2.058 21.158 3.569-6.255 21.544-10.81 45.391-13.491 70.608-20.464 14.916-38.85 30.782-54.379 46.959-4.921-5.5-9.49-11.023-13.675-16.543zm-14.228 45.112c9.568 0 17.353 7.784 17.353 17.353 0 9.568-7.784 17.353-17.353 17.353-9.568 0-17.353-7.785-17.353-17.353 0-9.569 7.784-17.353 17.353-17.353zm48.719 108.829c-36.181-.45-50.966-13-56.999-23.449-6.28-10.876-6.448-25.389-.539-42.142 2.769.946 5.734 1.467 8.82 1.467 15.082 0 27.353-12.271 27.353-27.353 0-7.961-3.421-15.137-8.868-20.14 2.973-3.699 6.12-7.397 9.423-11.086 15.524 16.181 33.889 32.041 54.377 46.965 2.682 25.213 7.237 49.055 13.491 70.595-16.956 3.568-32.798 5.324-47.058 5.143zm188.038 22.304c-16.29 38.674-38.301 60.855-60.387 60.855s-44.097-22.181-60.387-60.855c-2.689-6.383-5.187-13.1-7.489-20.111 14.369-3.545 29.382-8.276 44.806-14.139 4.861 7.618 13.382 12.685 23.069 12.685 9.688 0 18.209-5.067 23.07-12.685 15.424 5.863 30.437 10.594 44.806 14.139-2.302 7.011-4.8 13.728-7.488 20.111zm124.263-45.753c-10.93 18.931-37.029 23.2-56.999 23.449-14.258.173-30.1-1.583-47.055-5.147 6.253-21.538 10.807-45.378 13.489-70.589 20.491-14.927 38.86-30.791 54.386-46.975 4.92 5.499 9.487 11.02 13.67 16.539 25.348 33.444 33.552 63.595 22.509 82.723z" fill="#6583fe"/></g></g><path d="m118.669 75.239c-1.279 0-2.56-.488-3.535-1.464-1.953-1.953-1.953-5.119 0-7.071l3.327-3.328-5.001-3.173c-1.282-.813-2.125-2.164-2.292-3.673s.36-3.011 1.434-4.085l7.741-7.742c1.953-1.952 5.118-1.952 7.071 0 1.953 1.953 1.953 5.118.001 7.071l-3.328 3.327 5.002 3.173c1.282.813 2.125 2.164 2.292 3.673s-.361 3.012-1.435 4.085l-7.742 7.742c-.976.977-2.256 1.465-3.535 1.465z" fill="#ff7eb8"/><path d="m393.849 344.091c-1.279 0-2.56-.488-3.535-1.464-1.953-1.953-1.953-5.119 0-7.071l3.327-3.328-5.001-3.173c-1.282-.813-2.125-2.164-2.292-3.673s.36-3.011 1.434-4.085l7.741-7.742c1.953-1.952 5.118-1.952 7.071 0 1.953 1.953 1.953 5.118.001 7.071l-3.328 3.327 5.002 3.173c1.282.813 2.125 2.164 2.292 3.673s-.361 3.012-1.435 4.085l-7.742 7.742c-.976.977-2.256 1.465-3.535 1.465z" fill="#ff7eb8"/><path d="m131.769 180.272c-2.762 0-5-2.239-5-5 0-3.309-2.691-6-6-6-2.762 0-5-2.239-5-5s2.238-5 5-5c3.309 0 6-2.691 6-6 0-2.761 2.238-5 5-5s5 2.239 5 5c0 3.309 2.691 6 6 6 2.762 0 5 2.239 5 5s-2.238 5-5 5c-3.309 0-6 2.691-6 6 0 2.761-2.238 5-5 5z" fill="#01eca5"/><path d="m153.213 449.105c-2.762 0-5-2.239-5-5 0-3.309-2.691-6-6-6-2.762 0-5-2.239-5-5s2.238-5 5-5c3.309 0 6-2.691 6-6 0-2.761 2.238-5 5-5s5 2.239 5 5c0 3.309 2.691 6 6 6 2.762 0 5 2.239 5 5s-2.238 5-5 5c-3.309 0-6 2.691-6 6 0 2.761-2.238 5-5 5z" fill="#6583fe"/><path d="m455.844 276.403c-2.762 0-5-2.239-5-5 0-3.309-2.691-6-6-6-2.762 0-5-2.239-5-5s2.238-5 5-5c3.309 0 6-2.691 6-6 0-2.761 2.238-5 5-5s5 2.239 5 5c0 3.309 2.691 6 6 6 2.762 0 5 2.239 5 5s-2.238 5-5 5c-3.309 0-6 2.691-6 6 0 2.762-2.239 5-5 5z" fill="#ff7eb8"/></g></g><circle cx="256" cy="247" fill="url(#SVGID_2_)" r="47.485"/></g></svg>